<mxfile host="app.diagrams.net" agent="Mozilla/5.0 (Macintosh; Intel Mac OS X 10_15_7) AppleWebKit/537.36 (KHTML, like Gecko) Chrome/130.0.0.0 Safari/537.36" version="26.2.9">
  <diagram name="Page-1" id="BcNmVmZUqjCH2aFlpdxK">
    <mxGraphModel dx="1428" dy="772" grid="1" gridSize="10" guides="1" tooltips="1" connect="1" arrows="1" fold="1" page="1" pageScale="1" pageWidth="850" pageHeight="1100" math="0" shadow="0">
      <root>
        <mxCell id="0" />
        <mxCell id="1" parent="0" />
        <mxCell id="hWy6ZG31765ARKBdkO8h-1" value="" style="rounded=0;whiteSpace=wrap;html=1;" vertex="1" parent="1">
          <mxGeometry x="60" y="190" width="210" height="190" as="geometry" />
        </mxCell>
        <mxCell id="hWy6ZG31765ARKBdkO8h-2" value="OCP3 (Kubernetes)" style="text;html=1;align=center;verticalAlign=middle;resizable=0;points=[];autosize=1;strokeColor=none;fillColor=none;" vertex="1" parent="1">
          <mxGeometry x="100" y="160" width="130" height="30" as="geometry" />
        </mxCell>
        <mxCell id="hWy6ZG31765ARKBdkO8h-3" value="APP (Pod)&lt;div&gt;&lt;br&gt;&lt;/div&gt;&lt;div&gt;Front - Back&lt;/div&gt;&lt;div&gt;Springboot&lt;/div&gt;&lt;div&gt;(Java)&lt;/div&gt;" style="rounded=0;whiteSpace=wrap;html=1;fillColor=#d5e8d4;strokeColor=#82b366;" vertex="1" parent="1">
          <mxGeometry x="100" y="242.5" width="120" height="85" as="geometry" />
        </mxCell>
        <mxCell id="hWy6ZG31765ARKBdkO8h-4" value="AZURE AD&lt;div&gt;ENTRA ID&lt;/div&gt;" style="rounded=0;whiteSpace=wrap;html=1;fillColor=#fff2cc;strokeColor=#d6b656;" vertex="1" parent="1">
          <mxGeometry x="580" y="190" width="120" height="60" as="geometry" />
        </mxCell>
        <mxCell id="hWy6ZG31765ARKBdkO8h-5" value="APP2" style="rounded=0;whiteSpace=wrap;html=1;fillColor=#f8cecc;strokeColor=#b85450;" vertex="1" parent="1">
          <mxGeometry x="270" y="440" width="120" height="60" as="geometry" />
        </mxCell>
        <mxCell id="hWy6ZG31765ARKBdkO8h-6" value="APP3" style="rounded=0;whiteSpace=wrap;html=1;" vertex="1" parent="1">
          <mxGeometry x="270" y="530" width="120" height="60" as="geometry" />
        </mxCell>
        <mxCell id="hWy6ZG31765ARKBdkO8h-7" value="" style="endArrow=classic;html=1;rounded=0;exitX=0.5;exitY=1;exitDx=0;exitDy=0;entryX=0;entryY=0.5;entryDx=0;entryDy=0;" edge="1" parent="1" source="hWy6ZG31765ARKBdkO8h-3" target="hWy6ZG31765ARKBdkO8h-5">
          <mxGeometry width="50" height="50" relative="1" as="geometry">
            <mxPoint x="400" y="420" as="sourcePoint" />
            <mxPoint x="450" y="370" as="targetPoint" />
          </mxGeometry>
        </mxCell>
        <mxCell id="hWy6ZG31765ARKBdkO8h-8" value="" style="endArrow=classic;html=1;rounded=0;exitX=0.25;exitY=1;exitDx=0;exitDy=0;entryX=0;entryY=0.617;entryDx=0;entryDy=0;entryPerimeter=0;" edge="1" parent="1" source="hWy6ZG31765ARKBdkO8h-3" target="hWy6ZG31765ARKBdkO8h-6">
          <mxGeometry width="50" height="50" relative="1" as="geometry">
            <mxPoint x="130" y="320" as="sourcePoint" />
            <mxPoint x="240" y="475" as="targetPoint" />
          </mxGeometry>
        </mxCell>
        <mxCell id="hWy6ZG31765ARKBdkO8h-9" value="Actor" style="shape=umlActor;verticalLabelPosition=bottom;verticalAlign=top;html=1;outlineConnect=0;" vertex="1" parent="1">
          <mxGeometry x="410" y="20" width="30" height="60" as="geometry" />
        </mxCell>
        <mxCell id="hWy6ZG31765ARKBdkO8h-12" value="" style="endArrow=classic;html=1;rounded=0;entryX=0.675;entryY=0.017;entryDx=0;entryDy=0;entryPerimeter=0;" edge="1" parent="1" source="hWy6ZG31765ARKBdkO8h-9" target="hWy6ZG31765ARKBdkO8h-3">
          <mxGeometry width="50" height="50" relative="1" as="geometry">
            <mxPoint x="400" y="340" as="sourcePoint" />
            <mxPoint x="450" y="290" as="targetPoint" />
          </mxGeometry>
        </mxCell>
        <mxCell id="hWy6ZG31765ARKBdkO8h-13" value="" style="endArrow=classic;html=1;rounded=0;entryX=0;entryY=0.5;entryDx=0;entryDy=0;" edge="1" parent="1" source="hWy6ZG31765ARKBdkO8h-3" target="hWy6ZG31765ARKBdkO8h-4">
          <mxGeometry width="50" height="50" relative="1" as="geometry">
            <mxPoint x="400" y="340" as="sourcePoint" />
            <mxPoint x="450" y="290" as="targetPoint" />
          </mxGeometry>
        </mxCell>
        <mxCell id="hWy6ZG31765ARKBdkO8h-14" value="usuario/password" style="text;html=1;align=center;verticalAlign=middle;resizable=0;points=[];autosize=1;strokeColor=none;fillColor=none;" vertex="1" parent="1">
          <mxGeometry x="330" y="218" width="120" height="30" as="geometry" />
        </mxCell>
        <mxCell id="hWy6ZG31765ARKBdkO8h-15" value="" style="endArrow=classic;html=1;rounded=0;exitX=0;exitY=0.75;exitDx=0;exitDy=0;entryX=1;entryY=0.75;entryDx=0;entryDy=0;" edge="1" parent="1" source="hWy6ZG31765ARKBdkO8h-4" target="hWy6ZG31765ARKBdkO8h-3">
          <mxGeometry width="50" height="50" relative="1" as="geometry">
            <mxPoint x="400" y="340" as="sourcePoint" />
            <mxPoint x="450" y="290" as="targetPoint" />
          </mxGeometry>
        </mxCell>
        <mxCell id="hWy6ZG31765ARKBdkO8h-16" value="autenticado" style="edgeLabel;html=1;align=center;verticalAlign=middle;resizable=0;points=[];" vertex="1" connectable="0" parent="hWy6ZG31765ARKBdkO8h-15">
          <mxGeometry x="-0.0024" y="-2" relative="1" as="geometry">
            <mxPoint x="-1" as="offset" />
          </mxGeometry>
        </mxCell>
        <mxCell id="hWy6ZG31765ARKBdkO8h-17" value="&lt;b&gt;&lt;font style=&quot;color: rgb(103, 171, 159);&quot;&gt;ClientID&lt;/font&gt;&lt;/b&gt;&lt;div&gt;&lt;b&gt;&lt;font style=&quot;color: rgb(103, 171, 159);&quot;&gt;ClientSecret&lt;/font&gt;&lt;/b&gt;&lt;/div&gt;&lt;div&gt;&lt;b&gt;(Service Principal) -&amp;gt; Permisos Segregados Permisos para trabajar con el AD Azure&lt;/b&gt;&lt;/div&gt;&lt;div&gt;&lt;b&gt;&lt;br&gt;&lt;/b&gt;&lt;/div&gt;&lt;div&gt;Endpoint (AD AZURE) Cloud&lt;/div&gt;&lt;div&gt;&lt;br&gt;&lt;/div&gt;&lt;div&gt;&lt;span style=&quot;box-sizing: border-box; font-family: &amp;quot;Source Code Pro&amp;quot;, Consolas, &amp;quot;Bitstream Vera Sans Mono&amp;quot;, &amp;quot;Courier New&amp;quot;, Courier, monospace; font-size: 14px; text-align: start; white-space-collapse: preserve; color: rgb(99, 177, 117);&quot; class=&quot;hljs-attr&quot;&gt;issuer-uri:&lt;/span&gt;&lt;span style=&quot;color: rgb(10, 10, 10); font-family: &amp;quot;Source Code Pro&amp;quot;, Consolas, &amp;quot;Bitstream Vera Sans Mono&amp;quot;, &amp;quot;Courier New&amp;quot;, Courier, monospace; font-size: 14px; text-align: start; white-space-collapse: preserve; background-color: rgb(248, 248, 248);&quot;&gt; &lt;/span&gt;&lt;span style=&quot;box-sizing: border-box; font-family: &amp;quot;Source Code Pro&amp;quot;, Consolas, &amp;quot;Bitstream Vera Sans Mono&amp;quot;, &amp;quot;Courier New&amp;quot;, Courier, monospace; font-size: 14px; text-align: start; white-space-collapse: preserve; color: rgb(99, 177, 117);&quot; class=&quot;hljs-string&quot;&gt;https://login.microsoftonline.com/&lt;b&gt;your-tenant-id-comes-here&lt;/b&gt;/v2.0&lt;/span&gt;&lt;/div&gt;" style="rounded=0;whiteSpace=wrap;html=1;" vertex="1" parent="1">
          <mxGeometry x="570" y="20" width="510" height="150" as="geometry" />
        </mxCell>
        <mxCell id="hWy6ZG31765ARKBdkO8h-18" value="&lt;b&gt;OAUTH2 - SpringSecurity&lt;/b&gt;" style="text;html=1;align=center;verticalAlign=middle;resizable=0;points=[];autosize=1;strokeColor=none;fillColor=none;" vertex="1" parent="1">
          <mxGeometry x="330" y="170" width="170" height="30" as="geometry" />
        </mxCell>
      </root>
    </mxGraphModel>
  </diagram>
</mxfile>
